<?xml version="1.0" encoding="UTF-8"?>
<svg id="Capa_2" data-name="Capa 2" xmlns="http://www.w3.org/2000/svg" viewBox="0 0 434.28 242.9">
  <defs>
    <style>
      .cls-1 {
        fill: #3f2920;
      }
    </style>
  </defs>
  <g id="Capa_1-2" data-name="Capa 1">
    <g>
      <path class="cls-1" d="M90.12,30.43v19.11h-1.93l-.84-1.97c-3.98-9.82-10.82-14-22.88-14h-12.34v80.01c0,5.15.88,8.4,2.79,10.24,1.25,1.22,2.84,1.78,5.02,1.78h.98v1.93h-31.71v-1.93h.88c2.23,0,3.89-.57,5.13-1.76,1.93-1.88,2.82-5.13,2.82-10.25V33.58h-12.38c-12.02,0-18.86,4.18-22.86,13.97l-.86,1.98H0v-19.09h90.12Z"/>
      <path class="cls-1" d="M144.91,125.6v1.93h-10.7c-5.14-.27-7.91-2.38-8.04-6.27v-1.07l-.7.46-5.4,3.36c-5.43,3.05-11.65,4.7-17.31,4.7-2.14,0-4.21-.25-6.14-.73-3.82-.96-7.4-3.57-9.56-6.97-1.34-2.05-2.11-5.09-2.38-7.25-.11-.8-.16-1.68-.16-2.59-.34-9.11,5.77-15.43,11.09-18.08,6.81-3.39,13.18-4.89,18.81-6.23,4.24-.99,8.26-1.95,11.74-3.57.08-.04.02-8.06,0-8.81-.04-1.05-.17-2.07-.58-3.11-1-2.48-2.72-4.47-5.22-6.07-2.59-1.63-5.5-2.47-8.65-2.47-2.25,0-4.27.52-6.16,1.61-2.57,1.46-4.38,3.7-5.34,6.61-.36,1.07-.59,2.34-.77,3.34l-.04.2c-.38,1.93-.73,3.77-1.8,5.07-1.09,1.27-2.61,2.04-4.09,2.04-2.7,0-3.93-1.41-4.5-2.61-1.45-2.98-.21-7.49,1.75-9.95,1.38-1.75,3.13-3.34,5.04-4.59,7.07-4.63,16.93-6.3,25.78-4.36,4.7,1.05,10.68,3.61,13.45,6.91,1.27,1.48,2.29,3.41,2.82,5.27.95,3.29.96,6.91.96,9.82,0,.3-.08,31.85-.07,32.14.02,2.84.14,6.07,1.5,8.59.88,1.57,2.27,2.41,4.2,2.62l.46.05ZM126.17,116.53v-29.49c-3.16,1.51-6.27,2.49-9.27,3.43-5.72,1.79-11.13,3.48-15.9,8.65-2.57,2.8-3.88,6.32-3.75,10.16v.3c0,1.71,0,6.88,6.29,10.29,2.21,1.2,8.73,2.64,17.51-.55,2.3-.84,4.47-2.3,5.13-2.79Z"/>
      <path class="cls-1" d="M219.4,125.6v1.93h-28.04v-1.93c.63,0,1.23,0,1.89-.05,1.3-.11,2.49-.74,3.38-1.71,1.68-1.84,2.47-5.09,2.47-10.25,0,0-.07-32.83-.07-34.31-.09-6.34-1.96-13.93-10.34-13.93-10.74,0-17.59,10.38-18.36,11.61l-.04,36.63c0,5.16.79,8.41,2.47,10.25,1.07,1.18,2.54,1.77,4.34,1.77h.91v1.93h-28.03v-1.93h.98c1.8,0,3.21-.55,4.31-1.75,1.68-1.86,2.46-5.11,2.46-10.25v-34.42c.16-5.95-.61-9.65-2.41-11.7-1.16-1.32-2.64-1.93-4.7-1.93,0,0-.98,0-.98,0v-1.93l18.26-3.07h2.39l-.02,10.69c.16-.18.3-.36.38-.45,5.41-6.57,13.86-11.02,21.54-11.34.29-.02.59-.02.88-.02,5.16,0,9.74,1.91,13.27,5.56,3.11,3.2,4.98,8.22,5.29,14.17l.03,12.66c0,9.81-.03,21.78-.03,21.78,0,5.16.78,8.41,2.47,10.25.27.29.58.57.91.8.89.63,1.88.87,2.91.94.24.02,1.24.03,1.5.02Z"/>
      <path class="cls-1" d="M257.79,60.57v3.82h-12.31l.02,48.94c0,4.3.28,8.54,2.38,10.27,1.16,1,2.73,1.12,4.82.39.59-.2,1.54-.61,2.8-1.23l.56-.27.62,2-.39.21c-1.03.54-2.3,1.11-3.89,1.77-2.62,1.07-6.02,2.25-9.3,2.25-1.86,0-3.7-.39-5.32-1.38-4.41-2.7-4.79-9-4.79-14.72v-13.38c0-11.29.04-29.28.05-34.19v-.7h-9.84v-2.86l.41-.09c3.16-.73,13.79-4.38,18.15-20.04l.11-.39h3.38v19.58h12.56Z"/>
      <path class="cls-1" d="M311.78,69.87c-1.18,1.59-2.59,2.29-4.29,2.14-1.63-.16-3.24-1.09-4.79-1.98-.86-.5-1.68-.98-2.45-1.29-1.18-.46-5.18-1.89-8.52-.12-2.41,1.25-5.34,3.8-8.97,7.8l-.18.2v.29c0,15.09-.02,36.67-.02,36.67,0,5.16.77,8.41,2.45,10.25,1.11,1.2,2.52,1.76,4.34,1.76h.93v1.93h-28.02v-1.93h.54c2.14.04,3.54-.44,4.72-1.69,1.59-1.73,2.39-4.64,2.48-9.22.02-.54.05-36.67.05-37.01,0-5.09-.8-8.34-2.52-10.24-1.18-1.34-2.8-1.93-4.86-1.86h-.7v-1.93l17.99-3.12h2.62l-.02,11.13.89-.98c4.73-5.27,13.47-11.04,21.51-11.27.88.02,1.77.05,2.61.28,1.48.39,3,1.21,3.96,2.16.88.84,1.43,2.09,1.52,3.52.11,1.63-.38,3.25-1.3,4.48Z"/>
      <path class="cls-1" d="M346.41,125.6v1.93h-28.03v-1.93h.96c1.79,0,3.23-.59,4.32-1.76,1.68-1.86,2.47-5.11,2.47-10.24l-.02-35.96c0-5.07-.79-8.31-2.48-10.16-1.12-1.25-2.55-1.87-4.25-1.87-.2,0-1.36.02-1.36.02v-1.93l.45-.07,17.9-3.07h2.32v53.06c0,5.13.77,8.38,2.47,10.25,1.05,1.18,2.5,1.75,4.3,1.75h.95ZM325.62,47.3c-1.39-1.43-2.09-3.2-2.09-5.25s.73-3.81,2.25-5.32c1.48-1.5,3.31-2.25,5.41-2.25s3.9.75,5.41,2.25c1.52,1.52,2.25,3.27,2.25,5.32s-.77,3.93-2.25,5.41c-1.46,1.5-3.29,2.25-5.41,2.25s-3.93-.75-5.41-2.25l-.16-.16Z"/>
      <path class="cls-1" d="M410.99,108.87l-.16.43c-3.29,8.72-9.18,15.15-16.16,17.65-3.29,1.18-6.82,1.79-10.41,1.79-1.21,0-2.43-.07-3.64-.21-10.7-1.2-20.13-8.24-24.65-18.35-2.88-6.43-3.73-14.31-2.43-22.17,2.55-15.38,14.06-27.37,27.33-28.51.89-.09,1.78-.12,2.73-.12,5.82,0,11.56,1.54,16.63,4.41,3.23,1.86,8.32,6.27,9.15,10.79.34,1.73-.05,3.38-1.14,4.86-1.7,2.27-4.84,2.8-7.18,1.25-2.04-1.38-2.52-3.72-3.02-6.18-.11-.68-.27-1.36-.43-2.04-1.52-6.04-6.5-9.79-12.99-9.79-.36,0-.73.02-1.13.03-15.7,1.27-17.2,20.37-16.7,31.65.36,8.47,2.66,23.37,14.02,27.87,2.2.86,4.38,1.29,6.52,1.29h.55c8.66-.16,15.83-5.73,20.13-15.67l.23-.54,2.75,1.55Z"/>
      <path class="cls-1" d="M94.56,195.93v1.93h-.86c-2.16,0-3.84.61-5.13,1.84-1.91,1.89-2.8,5.18-2.8,10.36v24.76l-.29.14c-4.25,2.27-12.66,5.16-13.27,5.34l-1.89.55c-5.15,1.36-10.9,2.04-17.09,2.04-18.15,0-32.58-6.11-41.71-17.67-6.81-8.63-10.63-21.12-10.23-33.38.57-17.56,9.86-33.39,24.83-42.35,6.65-3.97,15.18-6.06,24.67-6.06,1.95,0,3.84.09,5.77.25,4.04.34,8.07,1,12.02,1.97,2.32.48,4.72,1.2,6.47,1.71l1.86.54c.41.13.82.25,1.25.34h.02c1.62.48,3.77.77,4.77-.46l.16-.2h2.04v23.76h-1.93l-.13-.36c-.28-.78-.64-1.62-1.23-2.88-2.96-6.38-6.77-13.34-12.5-16.68-5.18-3.04-11.24-4.7-17.02-4.7-9.91,0-18.13,3.27-24.4,9.74-7.81,8.06-12.09,20.94-11.73,35.35.23,9.09,2.21,18.56,5.32,25.35,3.52,7.72,8.23,13.47,13.99,17.08,8.43,5.27,18.4,6.72,28.1,4.06,2.72-.77,5.36-1.82,7.89-3.16l.45-.23v-24.83c0-5.18-.91-8.47-2.86-10.36-1.25-1.23-2.91-1.84-5.09-1.84h-.87v-1.93h31.46Z"/>
      <path class="cls-1" d="M163.69,239.76v1.93h-10.7c-5.14-.27-7.91-2.38-8.04-6.27v-1.07l-.7.46-5.4,3.36c-5.43,3.05-11.65,4.7-17.31,4.7-2.14,0-4.21-.25-6.14-.73-3.82-.96-7.4-3.57-9.56-6.97-1.34-2.05-2.11-5.09-2.38-7.25-.11-.8-.16-1.68-.16-2.59-.34-9.11,5.77-15.43,11.09-18.08,6.81-3.39,13.18-4.89,18.81-6.23,4.24-.99,8.26-1.95,11.74-3.57.08-.04.02-8.06,0-8.81-.04-1.05-.17-2.07-.58-3.11-1-2.48-2.72-4.47-5.22-6.07-2.59-1.63-5.5-2.47-8.65-2.47-2.25,0-4.27.52-6.16,1.61-2.57,1.46-4.38,3.7-5.34,6.61-.36,1.07-.59,2.34-.77,3.34l-.04.2c-.38,1.93-.73,3.77-1.8,5.07-1.09,1.27-2.61,2.04-4.09,2.04-2.7,0-3.93-1.41-4.5-2.61-1.45-2.98-.21-7.49,1.75-9.95,1.38-1.75,3.13-3.34,5.04-4.59,7.07-4.63,16.93-6.3,25.78-4.36,4.7,1.05,10.68,3.61,13.45,6.91,1.27,1.48,2.29,3.41,2.82,5.27.95,3.29.96,6.91.96,9.82,0,.3-.08,31.85-.07,32.14.02,2.84.14,6.07,1.5,8.59.88,1.57,2.27,2.41,4.2,2.62l.46.05ZM144.95,230.69v-29.49c-3.16,1.51-6.27,2.49-9.27,3.43-5.72,1.79-11.13,3.48-15.9,8.65-2.57,2.8-3.88,6.32-3.75,10.16v.3c0,1.71,0,6.88,6.29,10.29,2.21,1.2,8.73,2.64,17.51-.55,2.3-.84,4.47-2.3,5.13-2.79Z"/>
      <path class="cls-1" d="M218.19,184.04c-1.18,1.59-2.59,2.29-4.29,2.14-1.63-.16-3.24-1.09-4.79-1.98-.86-.5-1.68-.98-2.45-1.29-1.18-.46-5.18-1.89-8.52-.12-2.41,1.25-5.34,3.8-8.97,7.8l-.18.2v.29c0,15.09-.02,36.67-.02,36.67,0,5.16.77,8.41,2.45,10.25,1.11,1.2,2.52,1.76,4.34,1.76h.93v1.93h-28.02v-1.93h.54c2.14.04,3.54-.44,4.72-1.69,1.59-1.73,2.39-4.64,2.48-9.22.02-.54.05-36.67.05-37.01,0-5.09-.8-8.34-2.52-10.24-1.18-1.34-2.8-1.93-4.86-1.86h-.7v-1.93l17.99-3.12h2.62l-.02,11.13.89-.98c4.73-5.27,13.47-11.04,21.51-11.27.88.02,1.77.05,2.61.28,1.48.39,3,1.21,3.96,2.16.88.84,1.43,2.09,1.52,3.52.11,1.63-.38,3.25-1.3,4.48Z"/>
      <path class="cls-1" d="M271.73,234.78l-.7.71c-4.89,4.79-10.66,7.4-16.74,7.4-16.7,0-28.85-13.87-29.53-33.6-.04-.96-.04-1.73,0-2.37.68-19.99,12.56-33.42,29.53-33.42,8.81,0,14.97,5.23,17.15,7.41v-18.13c0-5.06-.79-8.29-2.48-10.18-1.14-1.23-2.64-1.84-4.59-1.84h-1v-1.94l18.17-3.16h2.47l.02,86.9c.62,4.89,2.73,7.19,6.59,7.19h.89v1.93h-15.96s-3.82-6.91-3.82-6.91ZM271.38,230.62h-.02v-45.17c-.82-.97-6.09-6.75-15.17-6.75-2.84,0-5.41.54-7.61,1.61-1.66.8-3.18,2-4.39,3.46-1.39,1.64-2.54,3.63-3.52,6.11-.89,2.25-1.57,4.89-2.04,7.84-.91,6.06-1,12.54-.23,19.24.34,2.98.95,5.68,1.84,8.25.91,2.59,2.04,4.77,3.32,6.5,3.45,4.68,8.73,5.66,12.58,5.66,2.3,0,4.7-.36,6.89-1.04,2.16-.64,4.13-1.68,5.86-3.11.84-.71,2.09-2.14,2.48-2.61Z"/>
      <path class="cls-1" d="M356.26,202.36h-45.33c-.39,5.61.09,11.15,1.38,16.02,1.41,5.29,3.8,9.7,6.93,12.75,4.91,4.86,12.54,6.86,19.01,4.91,6.09-1.77,11.63-6.77,14.79-13.38l.23-.5,1.34.68c.23.12.36.21.5.28.16.09.3.18.57.32l.41.22-.16.45c-3.07,8.16-9.59,14.83-17.04,17.38-2.68.93-5.54,1.39-8.48,1.39-3.31,0-6.73-.57-10.2-1.73-6.5-2.18-11.99-6.07-15.84-11.27-5-6.73-7.43-16.36-6.47-25.72.73-7.14,3.34-13.93,7.34-19.1,5.4-6.91,13.7-11.22,22.24-11.52.32-.02.62-.02.95-.02,7.07,0,14.02,2.73,19.04,7.52,5.52,5.29,8.81,13.04,8.81,20.76v.56ZM344.62,198.94c.34-5.89-1.52-11.75-4.95-15.7-3.57-4.15-8.91-6.13-13.68-5.06-3.62.82-7.02,3.25-9.55,6.82-3.07,4.29-4.88,9.09-5.22,13.93h33.4Z"/>
      <path class="cls-1" d="M434.28,239.76v1.93h-28.04v-1.93c.63,0,1.23,0,1.89-.05,1.3-.11,2.49-.74,3.38-1.71,1.68-1.84,2.46-5.09,2.46-10.25,0,0-.07-32.83-.07-34.31-.09-6.34-1.96-13.93-10.34-13.93-10.73,0-17.59,10.38-18.36,11.61l-.04,36.63c0,5.16.79,8.41,2.46,10.25,1.07,1.18,2.54,1.77,4.34,1.77h.91v1.93h-28.03v-1.93h.98c1.8,0,3.21-.55,4.31-1.75,1.68-1.86,2.46-5.11,2.46-10.25v-34.42c.16-5.95-.61-9.65-2.41-11.7-1.16-1.32-2.64-1.93-4.7-1.93,0,0-.98,0-.98,0v-1.93l18.26-3.07h2.39l-.02,10.69c.16-.18.3-.36.38-.45,5.41-6.57,13.86-11.02,21.54-11.34.29-.02.59-.02.87-.02,5.16,0,9.74,1.91,13.27,5.56,3.11,3.2,4.98,8.22,5.29,14.17l.03,12.66c0,9.81-.03,21.78-.03,21.78,0,5.16.78,8.41,2.47,10.25.27.29.58.57.91.8.89.63,1.88.87,2.91.94.24.02,1.24.03,1.5.02Z"/>
    </g>
    <g>
      <path class="cls-1" d="M121.3,14.54l-1.94.29-1.22-8.24,34.72-5.13,1.22,8.25-1.95.29-.63-1.03c-1.87-3.18-4.34-4.23-8.53-3.61l-3.91.58,4.25,28.74c.25,1.69.68,2.73,1.32,3.19.39.28.85.37,1.49.27l.98-.14.29,1.94-12.87,1.9-.29-1.94.94-.14c.67-.1,1.09-.31,1.38-.69.5-.65.61-1.74.36-3.44l-4.25-28.74-3.93.58c-4.12.61-6.25,2.37-7.12,5.9l-.32,1.18Z"/>
      <path class="cls-1" d="M188.62,31.86l.29,1.94-11.52,1.7-.29-1.94.97-.14c.48-.07.84-.28,1.05-.6.42-.63.5-1.76.25-3.46l-.02-.14c-.42-2.8-1.8-11.98-1.87-12.45-.48-2.97-1.77-4.33-3.84-4.03-3.34.49-5.12,3.81-5.55,4.73l1.95,13.26c.25,1.7.66,2.76,1.24,3.23.31.26.7.35,1.2.27l.96-.14.29,1.94-11.52,1.7-.29-1.94.62-.09s.39-.06.43-.07c.46-.08.77-.27.98-.59.42-.62.5-1.76.25-3.46l-3.44-23.29c-.23-1.99-.66-3.22-1.3-3.76-.34-.3-.74-.31-1.23-.26l-1.07.16-.29-1.95.67-.21,6.42-2.07,1.55-.23,2,13.61c1.76-2.28,4.32-3.95,6.89-4.44.12-.02.24-.04.35-.06,2.07-.31,4.02.19,5.65,1.44,1.44,1.1,2.48,2.98,2.93,5.29v.03s.7,4.64.7,4.64c.5,3.36,1.1,7.52,1.17,7.98h0c.25,1.72.66,2.77,1.24,3.25.31.25.69.33,1.21.26.1-.01.35-.05.35-.05l.62-.09Z"/>
      <path class="cls-1" d="M195.2,18.1c.19,1.8.63,3.53,1.27,5.03.76,1.76,1.81,3.16,3.03,4.04,1.38,1.01,3.23,1.46,4.94,1.21.59-.09,1.15-.25,1.67-.5,1.99-.91,3.62-2.9,4.37-5.33l.24-.81,1.15.38c.06.02.11.04.15.06.02,0,.03.01.04.02h.01s.06.03.09.04c.04.02.08.03.14.05l.67.23-.14.71c-.72,3.35-2.88,6.31-5.63,7.73-.99.51-2.08.86-3.23,1.03-1.29.19-2.65.16-4.04-.08-2.63-.47-4.97-1.66-6.76-3.45-2.31-2.31-3.79-5.86-3.95-9.5-.12-2.78.49-5.53,1.74-7.74,1.69-2.99,4.67-5.13,7.96-5.74.13-.03.25-.04.37-.06,2.76-.41,5.62.26,7.85,1.83,2.45,1.74,4.17,4.56,4.61,7.56l.12.82-16.67,2.46ZM195.05,15.59l10.96-1.62c-.29-1.79-1.16-3.45-2.38-4.49-1.11-.96-2.54-1.41-3.85-1.22-.28.04-.55.11-.81.21-1.14.44-2.14,1.41-2.81,2.72-.73,1.42-1.11,2.93-1.12,4.39Z"/>
    </g>
  </g>
</svg>