<?xml version="1.0" encoding="UTF-8"?>
<svg id="Capa_2" data-name="Capa 2" xmlns="http://www.w3.org/2000/svg" viewBox="0 0 148.14 55.54">
  <defs>
    <style>
      .cls-1 {
        fill: #faf4ed;
      }
    </style>
  </defs>
  <g id="PRINT">
    <g>
      <g>
        <path class="cls-1" d="M65.8,12.88v10.69c0,.66.1.97.8.97v.4h-3.8v-.4c.7,0,.8-.3.8-.97v-10.69c0-1.11-.4-1.41-1.19-1.41-1.29,0-2.11.72-2.29,1.57l-.04.18h-.48l.38-2.38h9.44l.38,2.38h-.48l-.04-.18c-.18-.85-1.01-1.57-2.29-1.57-.79,0-1.19.3-1.19,1.41Z"/>
        <path class="cls-1" d="M76.75,23.65v-6.6c0-.91-.36-1.17-.76-1.17-.91,0-2.38.97-2.38,3.18v4.59c0,.6.1.89.74.89v.4h-3.66v-.4c.64,0,.75-.28.75-.89v-11.03c0-.56-.12-.76-.75-.46v-.52l2.92-1.67v6.74c1.19-1.29,2.76-2.35,3.84-2.35.87,0,1.47.56,1.47,1.95v7.35c0,.6.1.89.68.89v.4h-3.54v-.4c.58,0,.68-.28.68-.89Z"/>
        <path class="cls-1" d="M85.11,14.35c2.64,0,3.9,2.68,4.03,4.77h-6.76c.14,2.58,1.63,4.27,3.6,4.27,1.83,0,2.7-1.51,2.94-2.66h.3c-.3,3.24-2.11,4.51-3.99,4.53-2.84.04-4.55-2.31-4.55-5.41,0-2.74,1.61-5.49,4.43-5.49ZM86.6,17.49c.02-1.17-.97-2.27-2.11-2.27s-2.07,1.09-2.13,3.28h2.98c.71,0,1.25-.2,1.27-1.01Z"/>
        <path class="cls-1" d="M98.5,12.88v10.69c0,.66.1.97.8.97v.4h-3.8v-.4c.7,0,.8-.3.8-.97v-10.69c0-1.11-.4-1.41-1.19-1.41-1.29,0-2.11.72-2.29,1.57l-.04.18h-.48l.38-2.38h9.44l.38,2.38h-.48l-.04-.18c-.18-.85-1.01-1.57-2.29-1.57-.79,0-1.19.3-1.19,1.41Z"/>
        <path class="cls-1" d="M108.46,22.32c-.58,2.07-1.55,2.92-2.84,2.92-1.59,0-2.44-1.11-2.44-2.5,0-1.79,1.41-2.98,3.18-4.13,1.65-1.07,2.07-1.73,2.07-2.5,0-.68-.42-1.09-1.29-1.09-1.43,0-2.88,1.07-2.48,2.31l.08.24-.48.02-.87-1.93c1.31-.85,2.88-1.33,4.45-1.33,1.91,0,2.66.97,2.66,3.3v5.92c0,.66.2.97.76.97v.4c-2.6.5-2.92-.38-2.86-1.79l.04-.83ZM106.51,24.11c1.33,0,1.85-2.74,1.85-6.24-2.19,1.59-3.02,2.82-3.02,4.47,0,1.21.46,1.77,1.17,1.77Z"/>
        <path class="cls-1" d="M118.49,23.65v-6.6c0-.97-.36-1.23-.76-1.23-.95,0-2.5,1.03-2.5,3.1v4.73c0,.6.1.89.66.89v.4h-3.52v-.4c.58,0,.68-.28.68-.89v-6.6c0-.52-.12-.72-.68-.44v-.52l2.86-1.67v2.29c1.21-1.29,2.84-2.35,3.99-2.35.83,0,1.45.56,1.45,2.09v7.21c0,.6.1.89.66.89v.4h-3.52v-.4c.58,0,.68-.28.68-.89Z"/>
        <path class="cls-1" d="M127.33,15.26h-1.91v7.89c0,.64.26.99.77.99.46,0,.99-.22,1.43-.78l.24.24c-.48.89-1.51,1.67-2.72,1.67s-1.89-.76-1.89-2.29v-7.71h-1.05v-.58h.72c1.27,0,1.83-1.01,1.91-2.4h.52v2.4h1.97v.58Z"/>
        <path class="cls-1" d="M133.35,16.72c-.72,0-1.71.68-1.77,3v3.84c0,.66.1.97.95.97v.4h-3.92v-.4c.7,0,.8-.3.8-.97v-6.5c0-.56-.12-.76-.8-.46v-.52l2.98-1.67v2.94c.84-1.61,1.93-2.84,3.14-2.84l-.36,3.08h-.46l.02-.2c.04-.36-.08-.66-.56-.66Z"/>
        <path class="cls-1" d="M136.29,23.57v-6.56c0-.54-.12-.7-.74-.46v-.52l2.9-1.67v9.22c0,.66.1.97.75.97v.4h-3.64v-.4c.64,0,.74-.3.74-.97ZM136.05,11.59c0-.72.58-1.29,1.31-1.29s1.29.56,1.29,1.29-.56,1.31-1.29,1.31-1.31-.58-1.31-1.31Z"/>
        <path class="cls-1" d="M147.82,15.3l-.95,2.46h-.58l.1-.32c.48-1.37-.56-2.46-1.95-2.46-1.59,0-2.6,1.45-2.6,3.62,0,2.74,1.27,4.87,3.18,4.87,1.63,0,2.52-1.45,2.82-2.74h.3c-.42,3.1-1.65,4.47-3.84,4.53-2.21.06-4.27-1.77-4.27-5.33,0-2.68,1.59-5.58,4.67-5.58,1.15,0,2.27.44,3.12.95Z"/>
        <path class="cls-1" d="M78,48.4h-.78v-.2c0-1.01-.67-1.16-1.57-.78-1.54.67-3.56,1.45-6.11,1.45-5.54,0-9.33-4.17-9.33-10.17,0-6.32,4.35-11.04,10.52-11.04,2.87,0,5.16.72,6.9,1.45l-1.45,4.11h-.75l.14-.46c.67-2.12-1.59-4.14-5.01-4.14-5.39,0-7.16,4.2-7.16,8.08,0,5.97,3.16,10.78,8.37,10.78,2.29,0,3.04-1.13,3.04-3.33v-6.14c0-.67-.15-1.1-.72-1.1h-.7v-.75h5.22v.67c-.43,0-.61.14-.61,1.04v10.55Z"/>
        <path class="cls-1" d="M88.4,44.64c-.84,2.98-2.23,4.2-4.09,4.2-2.29,0-3.51-1.59-3.51-3.59,0-2.58,2.03-4.29,4.58-5.94,2.38-1.54,2.98-2.49,2.98-3.59,0-.98-.61-1.56-1.85-1.56-2.06,0-4.14,1.54-3.56,3.33l.12.35-.7.03-1.25-2.78c1.88-1.22,4.14-1.91,6.4-1.91,2.75,0,3.82,1.39,3.82,4.75v8.52c0,.96.29,1.39,1.1,1.39v.58c-3.74.72-4.2-.55-4.12-2.58l.06-1.19ZM85.59,47.22c1.91,0,2.67-3.94,2.67-8.98-3.16,2.29-4.35,4.06-4.35,6.43,0,1.74.67,2.55,1.68,2.55Z"/>
        <path class="cls-1" d="M100.86,36.58c-1.04,0-2.46.98-2.55,4.32v5.53c0,.96.15,1.39,1.36,1.39v.58h-5.65v-.58c1.01,0,1.16-.43,1.16-1.39v-9.36c0-.81-.17-1.1-1.16-.67v-.75l4.29-2.41v4.23c1.22-2.32,2.78-4.09,4.52-4.09l-.52,4.43h-.67l.03-.29c.06-.52-.12-.96-.81-.96Z"/>
        <path class="cls-1" d="M103.82,41.36c0-5.27,3.04-8.2,6.26-8.2,1.74,0,2.93.75,3.48.75.35,0,.46-.23.46-.7v-2.75c0-.78-.12-1.1-1.07-.64v-.78l4.2-2.23v19.94c0,.72.23,1.07.99,1.07v.58h-4.11v-2.35c-1.22,1.88-2.7,2.81-4.4,2.81-3.56,0-5.8-2.98-5.8-7.5ZM111.06,46.93c2.09,0,2.96-2.52,2.96-5.88v-4.9c-.99-1.28-2.29-2.09-3.62-2.09-1.97,0-3.36,1.83-3.36,5.48,0,3.91,1.51,7.39,4.03,7.39Z"/>
        <path class="cls-1" d="M125.81,33.16c3.8,0,5.62,3.85,5.79,6.87h-9.74c.2,3.71,2.35,6.14,5.19,6.14,2.64,0,3.88-2.17,4.23-3.83h.43c-.43,4.67-3.04,6.49-5.74,6.52-4.09.06-6.55-3.33-6.55-7.79,0-3.94,2.32-7.91,6.38-7.91ZM127.96,37.68c.03-1.68-1.39-3.27-3.04-3.27s-2.98,1.56-3.07,4.72h4.29c1.01,0,1.8-.29,1.83-1.45Z"/>
        <path class="cls-1" d="M142.01,46.55v-9.5c0-1.39-.52-1.77-1.1-1.77-1.36,0-3.59,1.48-3.59,4.46v6.81c0,.87.15,1.27.96,1.27v.58h-5.07v-.58c.84,0,.99-.41.99-1.27v-9.5c0-.75-.17-1.04-.99-.64v-.75l4.11-2.41v3.3c1.74-1.85,4.09-3.39,5.74-3.39,1.19,0,2.09.81,2.09,3.01v10.37c0,.87.14,1.27.96,1.27v.58h-5.07v-.58c.84,0,.99-.41.99-1.27Z"/>
      </g>
      <path class="cls-1" d="M61.65,50.06c-.44-.58-1.05-.92-1.72-.97-1.11-.2-2.45-.35-3.98-.31-2.72.07-4.94.71-6.47,1.29-.31-.05-.85-.31-1.24-.53l-3.34-1.96,2.13-1.87,2.1-1.88.04-.04c.31-.39.65-.7.98-.92l.04-.03.05-.05c.2-.24.53-.56.9-.94,1.15-1.15,2.72-2.73,3.25-4.22l.06-.18-.14-.24s-.03-.06-.05-.08l-.05-.09-.09-.06c-1.97-1.19-3.05-.86-4.67-.1l.21-.45c1.32-.09,2.27-.42,3.26-1.12.71-.56,1-1.47.71-2.21-.22-.55-.67-.83-.93-.94l-.04-.02-1.31-.2c.14-.93.25-1.88.34-2.81.08-.86.14-1.74.18-2.61.05-1.16.17-3.88-.99-6.75-.33-.81-.74-1.6-1.2-2.29-.4-.6-1.27-1.76-2.56-2.78-.46-.36-4.66-3.53-9.08-2.27-.73.21-1.23.47-2.24.99-.9.47-1.78,1.01-2.61,1.61.48-1.3.85-3.19.12-5.2-1.23-3.39-4.96-5.51-8.87-5.03l-.32.04-.03.33c-.15,1.9.21,3.55,1.04,4.91.51.83,1.05,1.29,1.75,1.89.3.26.65.56,1.04.94.84.8,1.63,1.7,2.35,2.68-1.67-.91-2.28-1.12-2.31-1.13-1.16-.39-1.75-.58-2.49-.7-.67-.11-1.5-.24-2.57-.07-.26.04-.95.18-1.79.55-1.38.62-2.23,1.46-2.69,1.92-1.06,1.05-1.9,2.31-2.5,3.74-.17.46-.32.93-.46,1.41-.92-.29-1.89-.62-2.78-1.06-.72-.35-1.3-1.16-1.86-1.95-.22-.32-.44-.61-.66-.88l-2.75-3.33-3.4-4.22-.2.76c-.06.24-.13.48-.2.72l-.06.2,2.39,3.03,2.88,3.55c.35.49.73.98,1.12,1.45.77.92,1.23,1.47,1.94,1.95.44.3.82.47,2.37.95.26.08.54.17.85.26-.07.35-.13.69-.17,1.01-.5,3.6.21,6.5.56,7.9.17.67.36,1.33.59,1.98-.24-.18-.47-.38-.7-.58-.91-.78-1.86-1.58-3.28-1.6l-1.29-.02,1.06.74c2.04,1.43,4.2,3.05,6.15,5.16l4.4,4.74,1.09-.44c2.61-.35,5.17-.36,7.34-.32.97-.05,1.95-.11,2.92-.16.64-4.27.83-5.91.88-6.57.02-.32.08-.72.19-1.53.01-.08.07-.5.22-1.02.14-.49.25-.69.44-.86.16-.14.32-.21.44-.25-.22.39-.31.73-.34.96-.06.32-.18,1.03.24,1.66.2.3.45.48.62.58-.13,1.74-.35,3.6-.66,5.55-.18,1.15-.39,2.25-.62,3.31l-10.91,4.26c-1.23.48-3.45.12-4.46-.72-2.63-3.1-5.6-6.61-9.14-9.66-.49-.43-1-.83-1.48-1.22-.98-.78-1.9-1.53-2.74-2.42-1.7-1.8-3.66-3.92-5.43-6.22l-.67-.87-.32,1.86,1.38,1.73,2.74,3.17c1,1.16,2.15,2.12,3.26,3.05.53.45,1.09.91,1.62,1.39l3.01,2.72c1.85,1.67,3.39,3.46,4.79,5.15.19.23.38.49.58.76.49.67.99,1.36,1.66,1.8,1.38.91,3.14,1.28,5.23,1.11,1.84,1.97,4.28,2.6,6.89,1.75,1.38,1.96,3.86,2.64,6.2,1.69.51-.21.8-.18,1.45.17,2.92,1.55,6.11,2.22,8.85,2.68l.41.07c.89.15,1.81.31,2.71.31.6,0,1.14-.07,1.63-.21l6.05-1.85c.59-.13,1.17-.27,1.76-.4l1.96-.55.05-.24c.14-.73-.08-1.58-.57-2.22ZM50.74,34.09c.11-.28.21-.56.31-.85.15,0,.29.02.44.04.58.07.81.11.92.23.07.08.13.24.1.37-.08.42-1.05.72-1.52.87-.19.06-.39.11-.59.14.12-.26.23-.53.34-.79ZM29.65,12.81c-.12-.16-.63-.67-1.74-1.79-.7-.7-1.08-1.08-1.32-1.31-.26-.26-.3-.3-.38-.41-.62-.82-.91-1.95-.87-3.36,1.01-.01,2.03.2,2.94.6.8.35,2.74,1.42,3.63,3.69.63,1.62.52,2.92.27,3.78-.02-.12-.05-.24-.08-.36-.27-1.19-.65-2.83-1.66-4.29-1.17-1.69-2.89-2.67-3.33-2.69-.15,0-.28.05-.37.15-.28.33-.01.6.47,1.09.44.45,1.11,1.12,1.75,2.01,1.03,1.43,1.76,3.1,2.15,4.95-.17-.18-.38-.5-.59-.82-.24-.37-.52-.79-.87-1.24ZM34.8,30.66c-.14.15-.36.44-.65,1.26-.14.38-.3.91-.43,1.55l-.89,6.45-3.61-.1-2.03.03c-1.61.02-2.97.19-4.42.54l-2.69-2.96c-.88-1.1-1.61-2.3-2.18-3.58-.36-.81-1.02-2.52-1.34-4.88-.26-1.89-.85-6.32,1.43-10,.49-.79,1.08-1.49,1.75-2.08.64-.56,1.83-1.6,3.58-1.81.75-.09,1.3,0,1.99.13,1.67.29,2.98.98,3.76,1.39.15.08.32.17.51.27l.04.02c1.45.79,1.82.95,2.08.93.36,0,.74-.29,1.5-.87.7-.53,1.65-1.26,2.86-1.93,1.12-.62,2.74-1.36,4.19-1.36.03,0,.05,0,.07,0,.56.01,1.17.11,1.81.31,5.08,1.52,7.02,6,7.04,6.05.57,1.32.67,2.38.85,4.31.19,2.02.09,4.22-.3,6.39-.51,2.83-.91,5.07-2.59,7.22-1.07,1.37-2.48,2.48-3.33,3.14-.7.55-1.45,1.07-2.21,1.55l-.88-5.79c-.25-1.61-.65-3.25-1.19-4.89l-.09-.26c-.05-.06-.46-.52-.98-.47-.58.06-1.11.73-1.03,1.58-.02-.33-.03-.69-.06-1.09-.04-.71-.06-.89-.16-1.13-.1-.23-.25-.58-.58-.72-.4-.16-.83.07-1.15.24-.07.04-.37.2-.68.53ZM30.36,49.32c-1.67.48-3.46.07-4.51-1.02l10.55-4.26.04-.02.76-3.64c.3-2.52.6-5.04.9-7.56.09-.42.27-.7.44-.7.03,0,.08.01.14.06-.09.27-.19.67-.21,1.17-.01.37-.03.8.17,1.29.23.57.64.92.89,1.1.59,4.65.89,8.06.82,8.3-.06.21-.13.4-.13.4-.03.08-.06.15-.09.23-.19.47-.34.83-.69.99-.63.28-1.26.56-1.88.83-2.41,1.08-4.69,2.1-7.19,2.82ZM34.2,51.11c-.62-.16-1.12-.49-1.51-.99l7.21-3.03c.84-.35,1.15-.87,1.46-1.37.14-.22.28-.45.47-.68,1.09-1.28,2.49-2.41,3.85-3.51.45-.37.97-.78,1.45-1.19,1.75-1.48,3.75-2.6,4.53-2.74-.06.05-.13.11-.19.17-.73.62-2.07,1.77-2.1,3.85l-2.35,2.19c-2.02,1.88-4.74,4.27-7.92,6.17-1.79,1.07-3.58,1.48-4.89,1.13ZM56.58,52.14c-.34.31-.62.55-1.06.69l-3.82,1.13c-.66.2-1.56.17-2.74-.08h-.03c-3.37-.46-6.39-1.27-9.2-2.49-.03-.02-.06-.05-.09-.07.06-.05.12-.1.15-.12l3.88-2.62,4.38,2.55c.71.41,1.68.5,2.41.23,2.72-1.03,5.62-1.3,9.13-.84.13.02.26.06.38.11-2.02.28-2.78.96-3.4,1.52Z"/>
      <path class="cls-1" d="M49.95,12.79l.36,1.99.27-2.01c.4-3.03,1.55-4.41,3.95-4.77l2.25-.33-2.26-.3c-2.45-.33-3.81-1.83-4.13-4.59l-.33-2.78-.31,2.78c-.28,2.49-1.03,4.15-3.94,4.69l-1.86.35,1.87.28c2.42.37,3.57,1.68,4.12,4.69Z"/>
      <path class="cls-1" d="M15.86,13.61l.2,1.34.22-1.33c.19-1.19.66-1.72,1.59-1.83l1.51-.18-1.5-.24c-.95-.16-1.46-.76-1.56-1.85l-.16-1.86-.26,1.85c-.16,1.15-.59,1.64-1.59,1.79l-1.25.19,1.24.23c.94.17,1.37.7,1.55,1.89Z"/>
      <path class="cls-1" d="M25.26,16.81c-.12-.34-1.96-.28-3.36.62-.69.44-1.15,1.01-1.62,1.59-.37.46-.8.99-1.14,1.76-.54,1.23-.7,2.72-.43,2.81.32.11.77-1.99,2.68-3.97,1.94-2.01,4-2.44,3.87-2.81Z"/>
    </g>
  </g>
</svg>